#!OML:ASF F:\VICON\USERDATA\INSTALL\rory3\rory3.ASF
:FULLY-SPECIFIED
:DEGREES
461
root -14.9037 18.2998 11.4838 -169.845 85.6491 192.311
lowerback 10.9479 0.261271 0.0401299
upperback 2.32919 0.436558 0.0577175
thorax -3.70709 0.251498 -0.0257008
lowerneck -8.89134 -3.84126 -12.8556
upperneck 42.2969 -1.54424 4.67399
head 17.254 -1.26468 4.46684
rclavicle 7.19352e-015 -5.46658e-015
rhumerus -37.3975 -8.82833 -79.5121
rradius 35.1584
rwrist 6.42892
rhand -13.2398 8.68805
rfingers 7.12502
rthumb 12.862 -20.8956
lclavicle 7.19352e-015 -5.46658e-015
lhumerus -29.7189 8.34083 82.9156
lradius 39.4825
lwrist -2.65817
lhand -19.1329 26.1678
lfingers 7.12502
lthumb 7.17684 56.0261
rfemur -6.69125 -0.558836 23.8711
rtibia 30.5613
rfoot -6.66309 0.158185
rtoes -2.79404
lfemur -14.1135 -2.37575 -19.551
ltibia 50.631
lfoot -4.83295 -5.58972
ltoes -12.608
462
root -14.9975 18.3058 11.4669 -170.535 85.6552 191.704
lowerback 10.7808 0.194741 0.0100163
upperback 2.29822 0.343891 0.0907113
thorax -3.64746 0.205027 0.0392489
lowerneck -8.90247 -3.80364 -13.0096
upperneck 42.3177 -1.44017 4.66401
head 17.2617 -1.24844 4.50796
rclavicle 2.2736e-015 -1.98785e-016
rhumerus -37.7075 -8.5009 -79.5836
rradius 35.1367
rwrist 6.46502
rhand -13.198 8.72792
rfingers 7.12502
rthumb 12.9023 -20.8532
lclavicle 2.2736e-015 -1.98785e-016
lhumerus -29.5954 7.96105 83.0813
lradius 39.3853
lwrist -2.51588
lhand -19.463 26.3567
lfingers 7.12502
lthumb 6.85826 56.2256
rfemur -6.85388 -0.661183 23.7745
rtibia 30.4045
rfoot -6.39858 0.179322
rtoes -5.37413
lfemur -13.2017 -1.98789 -19.4358
ltibia 51.0234
lfoot -4.34294 -6.05324
ltoes -14.1788
463
root -15.0945 18.3088 11.4509 -171.034 85.6121 191.313
lowerback 10.6531 0.103875 0.0291125
upperback 2.28793 0.223234 0.0692465
thorax -3.5874 0.144482 0.0231721
lowerneck -8.9345 -3.75818 -13.0212
upperneck 42.3153 -1.37804 4.6797
head 17.2597 -1.22433 4.52709
rclavicle 7.33018e-016 2.88238e-015
rhumerus -38.0207 -8.07102 -79.7907
rradius 35.2098
rwrist 6.23555
rhand -13.0008 8.76926
rfingers 7.12502
rthumb 13.0924 -20.7998
lclavicle 7.33018e-016 2.88238e-015
lhumerus -29.4238 7.74095 83.1334
lradius 39.2828
lwrist -2.62073
lhand -19.6364 26.6177
lfingers 7.12502
lthumb 6.6908 56.492
rfemur -6.9671 -0.655968 23.7129
rtibia 30.2233
rfoot -6.23909 0.0516085
rtoes -6.86588
lfemur -12.2758 -1.54787 -19.2295
ltibia 51.3471
lfoot -3.952 -6.8484
ltoes -15.3028
464
root -15.1918 18.3121 11.4356 -172.466 85.5636 189.955
lowerback 10.5091 0.046396 -0.0153895
upperback 2.24989 0.137835 0.0228913
thorax -3.54735 0.101446 0.0119782
lowerneck -8.81655 -3.70696 -12.9761
upperneck 42.2226 -1.3237 4.63425
head 17.1656 -1.19756 4.49882
rclavicle 2.36057e-016 2.68359e-015
rhumerus -38.4104 -7.86046 -79.8854
rradius 35.3193
rwrist 6.22599
rhand -12.7972 8.81339
rfingers 7.12502
rthumb 13.2887 -20.743
lclavicle 2.36057e-016 2.68359e-015
lhumerus -29.2373 7.66011 83.1883
lradius 39.127
lwrist -2.79749
lhand -19.6823 26.6618
lfingers 7.12502
lthumb 6.64655 56.5375
rfemur -7.09669 -0.667087 23.5334
rtibia 30.0234
rfoot -6.11862 -0.00729329
rtoes -6.01228
lfemur -11.3798 -1.15355 -19.085
ltibia 51.5777
lfoot -3.50487 -7.63566
ltoes -15.2675
465
root -15.2909 18.3141 11.4223 -174.507 85.5289 188.016
lowerback 10.4474 -0.0161105 -0.198078
upperback 2.20133 0.0330976 0.0253467
thorax -3.56374 0.0503589 0.13146
lowerneck -8.79466 -3.64279 -13.0022
upperneck 42.2509 -1.19601 4.58142
head 17.1606 -1.15512 4.50095
rclavicle -4.79568e-015 2.18663e-015
rhumerus -38.685 -7.73742 -79.8965
rradius 35.2526
rwrist 6.47311
rhand -12.5743 8.74739
rfingers 7.12502
rthumb 13.5035 -20.7948
lclavicle -4.79568e-015 2.18663e-015
lhumerus -29.0748 7.60069 83.2701
lradius 38.9821
lwrist -3.08761
lhand -20.013 27.0502
lfingers 7.12502
lthumb 6.32727 56.9357
rfemur -7.23488 -0.695895 23.3085
rtibia 29.8307
rfoot -5.86876 -0.00506339
rtoes -6.19909
lfemur -10.4477 -0.830527 -19.0167
ltibia 51.6792
lfoot -2.92174 -8.33141
ltoes -15.3858
466
root -15.3877 18.3134 11.405 -174.405 85.5087 188.254
lowerback 10.3149 -0.124249 -0.190928
upperback 2.22818 -0.107651 0.0699138
thorax -3.46193 -0.0195346 0.192194
lowerneck -8.95317 -3.59289 -13.0433
upperneck 42.3756 -1.05985 4.53829
head 17.2579 -1.11629 4.51946
rclavicle -1.15792e-014 2.68359e-015
rhumerus -38.8192 -7.50437 -80
rradius 35.2098
rwrist 6.40784
rhand -12.6182 8.72464
rfingers 7.12502
rthumb 13.4612 -20.8204
lclavicle -1.15792e-014 2.68359e-015
lhumerus -28.8368 7.56785 83.2932
lradius 38.8735
lwrist -3.44114
lhand -20.056 27.4821
lfingers 7.12502
lthumb 6.28577 57.3688
rfemur -7.35429 -0.674539 23.2552
rtibia 29.6421
rfoot -5.60068 0.0184996
rtoes -7.44095
lfemur -9.39912 -0.503103 -18.7913
ltibia 51.6448
lfoot -2.20035 -9.09358
ltoes -15.4972
467
root -15.4818 18.3113 11.3839 -173.559 85.5109 189.126
lowerback 9.99839 -0.202214 -0.0736314
upperback 2.2451 -0.19923 0.0967764
thorax -3.26936 -0.06684 0.165081
lowerneck -9.04436 -3.57743 -13.073
upperneck 42.438 -0.993402 4.48784
head 17.3111 -1.10372 4.51652
rclavicle 2.11084e-014 -1.88845e-015
rhumerus -39.0209 -7.35637 -80.0556
rradius 35.2385
rwrist 6.27632
rhand -12.6306 8.84316
rfingers 7.12502
rthumb 13.4492 -20.7026
lclavicle 2.11084e-014 -1.88845e-015
lhumerus -28.5694 7.5257 83.337
lradius 38.7108
lwrist -3.52571
lhand -20.1125 27.4424
lfingers 7.12502
lthumb 6.23125 57.3307
rfemur -7.61775 -0.635447 23.2555
rtibia 29.508
rfoot -5.55574 -0.00708257
rtoes -8.84772
lfemur -8.3747 -0.34779 -18.5591
ltibia 51.455
lfoot -1.37849 -9.68296
ltoes -14.7737
468
root -15.5761 18.3083 11.3619 -174.105 85.5413 188.625
lowerback 9.73287 -0.230531 -0.0985845
upperback 2.23467 -0.241405 0.101494
thorax -3.13308 -0.0886986 0.188455
lowerneck -9.01072 -3.57405 -13.1401
upperneck 42.469 -0.962315 4.4666
head 17.3197 -1.10442 4.52535
rclavicle 5.55355e-015 -9.93923e-017
rhumerus -39.2578 -7.35915 -80.0023
rradius 35.1653
rwrist 6.40977
rhand -12.7938 8.71128
rfingers 7.12502
rthumb 13.292 -20.8448
lclavicle 5.55355e-015 -9.93923e-017
lhumerus -28.3501 7.43181 83.4568
lradius 38.4879
lwrist -3.44949
lhand -20.2822 27.1495
lfingers 7.12502
lthumb 6.06735 57.0426
rfemur -7.85867 -0.524654 23.1289
rtibia 29.3954
rfoot -5.46561 -0.14846
rtoes -8.66826
lfemur -7.27699 -0.404603 -18.5138
ltibia 51.1287
lfoot -0.499364 -9.93238
ltoes -12.9752
469
root -15.6721 18.3059 11.3399 -177.049 85.6347 185.784
lowerback 9.59913 -0.260761 -0.321942
upperback 2.19972 -0.307472 0.0532773
thorax -3.09405 -0.120997 0.271836
lowerneck -8.94022 -3.55478 -13.1862
upperneck 42.5383 -0.908858 4.43974
head 17.3376 -1.09335 4.53358
rclavicle 3.2551e-015 -7.95139e-016
rhumerus -39.463 -7.39709 -79.9427
rradius 34.991
rwrist 6.52451
rhand -13.0519 8.62884
rfingers 7.12502
rthumb 13.0432 -20.9434
lclavicle 3.2551e-015 -7.95139e-016
lhumerus -28.2299 7.17985 83.5374
lradius 38.3351
lwrist -3.42087
lhand -20.2288 27.0249
lfingers 7.12502
lthumb 6.11897 56.9165
rfemur -7.97899 -0.297353 22.7776
rtibia 29.3078
rfoot -5.39218 -0.314008
rtoes -7.35847
lfemur -6.0894 -0.116542 -18.6338
ltibia 50.6545
lfoot 0.343216 -10.4409
ltoes -11.6717
470
root -15.771 18.305 11.313 -179.716 85.7037 183.26
lowerback 9.54763 -0.350879 -0.450777
upperback 2.17389 -0.442222 0.0172564
thorax -3.09062 -0.187589 0.323085
lowerneck -8.91578 -3.46563 -13.1361
upperneck 42.5707 -0.724259 4.28716
head 17.3256 -1.02928 4.48394
rclavicle 1.20824e-014 -2.73329e-015
rhumerus -39.5867 -7.42699 -79.8357
rradius 34.7452
rwrist 6.49751
rhand -12.999 8.86098
rfingers 7.12502
rthumb 13.0942 -20.708
lclavicle 1.20824e-014 -2.73329e-015
lhumerus -28.0703 7.07444 83.567
lradius 38.1538
lwrist -3.41002
lhand -20.0847 27.0015
lfingers 7.12502
lthumb 6.258 56.8891
rfemur -8.14263 -0.379034 22.4394
rtibia 29.2099
rfoot -5.25478 -0.221491
rtoes -7.25425
lfemur -4.88098 0.221631 -18.7165
ltibia 50.0749
lfoot 1.37231 -11.0515
ltoes -11.4047
471
root -15.8736 18.302 11.2854 -180.899 85.6703 182.207
lowerback 9.49229 -0.422063 -0.49292
upperback 2.15 -0.540728 0.0477226
thorax -3.08318 -0.236631 0.389846
lowerneck -8.80876 -3.42585 -13.1273
upperneck 42.5394 -0.631906 4.15873
head 17.2692 -1.00353 4.43352
rclavicle -1.57102e-014 1.93815e-015
rhumerus -39.7154 -7.71267 -79.5555
rradius 34.56
rwrist 6.61701
rhand -12.8799 8.92372
rfingers 7.12502
rthumb 13.2089 -20.6378
lclavicle -1.57102e-014 1.93815e-015
lhumerus -27.8473 7.14128 83.6918
lradius 37.9011
lwrist -3.58548
lhand -20.0097 26.7095
lfingers 7.12502
lthumb 6.33044 56.5949
rfemur -8.37743 -0.458947 22.2355
rtibia 29.1651
rfoot -5.11508 -0.188416
rtoes -7.67211
lfemur -3.68414 0.0378989 -18.781
ltibia 49.3663
lfoot 2.35441 -11.2767
ltoes -11.6684
